<svg width="32" height="32" xmlns="http://www.w3.org/2000/svg">

 <g>
  <title>background</title>
  <rect fill="none" id="canvas_background" height="402" width="582" y="-1" x="-1"/>
 </g>
 <g>
  <title>Layer 1</title>
  <path fill="#ffffff" id="svg_2" d="m11.474,1.504l0.545,0.061l0.061,0.546c0.018,0.158 0.151,0.278 0.31,0.278s0.293,-0.12 0.31,-0.278l0.061,-0.546l0.546,-0.061c0.158,-0.017 0.278,-0.151 0.278,-0.31s-0.12,-0.293 -0.278,-0.31l-0.546,-0.061l-0.061,-0.545c-0.017,-0.159 -0.151,-0.278 -0.31,-0.278c-0.159,0 -0.293,0.119 -0.31,0.278l-0.061,0.545l-0.545,0.061c-0.159,0.017 -0.278,0.151 -0.278,0.31c0,0.159 0.119,0.293 0.278,0.31z"/>
  <path fill="#ffffff" id="svg_3" d="m26.271,4.909l0.855,0.095l0.095,0.855c0.018,0.158 0.151,0.278 0.31,0.278s0.293,-0.12 0.31,-0.278l0.095,-0.855l0.855,-0.095c0.158,-0.017 0.278,-0.151 0.278,-0.31c0,-0.159 -0.12,-0.293 -0.278,-0.31l-0.855,-0.095l-0.095,-0.855c-0.018,-0.158 -0.151,-0.278 -0.31,-0.278s-0.293,0.12 -0.31,0.278l-0.095,0.855l-0.855,0.095c-0.158,0.017 -0.278,0.151 -0.278,0.31c0,0.159 0.12,0.292 0.278,0.31z"/>
  <path fill="#ffffff" id="svg_4" d="m22.659,11.049c0.191,0.049 0.373,0.073 0.546,0.073c0.401,0 0.745,-0.13 0.999,-0.384c0.701,-0.7 0.411,-2.087 -0.658,-3.157c-0.483,-0.483 -1.055,-0.827 -1.611,-0.97c-0.633,-0.161 -1.182,-0.052 -1.545,0.311c-0.7,0.7 -0.411,2.087 0.658,3.157c0.482,0.483 1.055,0.828 1.611,0.97zm-1.681,-3.538c0.092,-0.092 0.237,-0.139 0.416,-0.139c0.101,0 0.214,0.015 0.334,0.046c0.408,0.104 0.856,0.379 1.229,0.752c0.755,0.755 0.97,1.668 0.658,1.98c-0.312,0.311 -1.225,0.096 -1.98,-0.658c-0.754,-0.756 -0.969,-1.669 -0.657,-1.981z"/>
  <path fill="#ffffff" id="svg_5" d="m27.705,20.17c0.546,-1.411 0.838,-2.922 0.838,-4.475c0,-6.834 -5.56,-12.395 -12.394,-12.395c-1.677,0 -3.299,0.33 -4.796,0.958c-1.704,-1.298 -3.243,-2.325 -4.57,-3.038c-2.236,-1.201 -3.675,-1.433 -4.399,-0.709c-1.383,1.384 1.017,5.31 3.36,8.457c-1.299,2.005 -1.991,4.325 -1.991,6.728c0,6.834 5.56,12.394 12.395,12.394c2.526,0 4.944,-0.757 7.013,-2.181c2.476,1.83 5.39,3.659 7.172,3.659c0.466,0 0.854,-0.125 1.136,-0.407c0.724,-0.724 0.492,-2.163 -0.709,-4.398c-0.717,-1.335 -1.749,-2.882 -3.055,-4.593zm0.005,-4.474c0,1.515 -0.293,2.988 -0.849,4.356c-0.002,0.005 -0.008,0.007 -0.01,0.013c-0.306,0.69 -0.613,1.356 -0.998,1.918c-0.343,0.527 -0.738,1.024 -1.168,1.495l-0.996,-0.733c-2.154,-1.379 -5.375,-4.139 -8.617,-7.381c-2.908,-2.908 -5.47,-5.855 -6.946,-7.977c0.458,-0.442 0.94,-0.849 1.453,-1.205c0.012,-0.007 0.027,-0.004 0.039,-0.012c0.587,-0.402 1.214,-0.752 1.863,-1.04c0.014,-0.006 0.022,-0.021 0.035,-0.028c1.441,-0.63 3.008,-0.967 4.633,-0.967c6.375,-0.001 11.561,5.185 11.561,11.561zm-1.529,7.257c0.773,1.202 0.834,1.642 0.841,1.741c-0.126,-0.002 -0.559,-0.072 -1.642,-0.748c0.286,-0.319 0.552,-0.65 0.801,-0.993zm-19.329,-17.976c0.155,0.007 0.632,0.11 1.801,0.863c-0.345,0.264 -0.677,0.546 -0.997,0.848c-0.693,-1.094 -0.795,-1.56 -0.804,-1.711zm-2.266,10.719c0,-2.143 0.591,-4.213 1.701,-6.025c1.884,2.45 4.214,5.089 6.801,7.677c2.664,2.664 5.403,5.085 7.93,7.007l1.43,1.028c-1.876,1.224 -4.04,1.875 -6.3,1.875c-6.375,0 -11.562,-5.187 -11.562,-11.562zm26.294,12.876c-0.447,0.447 -2.553,0.19 -7.608,-3.615l-0.195,-0.148c-0.003,-0.002 -0.006,-0.005 -0.009,-0.007l-1.555,-1.117c-2.488,-1.892 -5.198,-4.287 -7.836,-6.926c-2.721,-2.722 -5.173,-5.506 -7.089,-8.052c-3.805,-5.053 -4.063,-7.159 -3.615,-7.607c0.1,-0.1 0.277,-0.161 0.541,-0.161c0.554,0 1.487,0.269 2.874,1.014c1.184,0.636 2.6,1.567 4.122,2.709c-0.388,0.199 -0.766,0.417 -1.133,0.658c-1.713,-1.149 -2.658,-1.432 -3.137,-0.953c-0.479,0.478 -0.194,1.416 0.942,3.118c0.021,0.055 0.051,0.106 0.096,0.15c0.003,0.003 0.006,0.003 0.009,0.006c1.497,2.205 4.113,5.227 7.197,8.312c3.282,3.282 6.555,6.083 8.732,7.477l1.032,0.769l0.16,0.109c1.76,1.187 2.718,1.485 3.205,0.999c0.48,-0.48 0.206,-1.409 -0.919,-3.088c0.055,-0.087 0.096,-0.187 0.148,-0.277c0.172,-0.294 0.333,-0.593 0.479,-0.899c0,-0.001 0.001,-0.001 0.001,-0.002c1.139,1.519 2.068,2.933 2.704,4.117c1.101,2.046 1.163,3.105 0.854,3.414z"/>
  <path fill="#ffffff" id="svg_6" d="m2.614,9.194c-0.122,-0.122 -0.32,-0.122 -0.441,0l-0.41,0.41c-0.122,0.122 -0.122,0.319 0,0.441l0.41,0.41c0.061,0.061 0.141,0.091 0.221,0.091c0.08,0 0.16,-0.03 0.221,-0.091l0.41,-0.41c0.059,-0.059 0.091,-0.138 0.091,-0.221c0,-0.083 -0.033,-0.162 -0.091,-0.221l-0.411,-0.409z"/>
  <path fill="#ffffff" id="svg_7" d="m32.09,16.744l-0.41,-0.41c-0.122,-0.122 -0.319,-0.122 -0.441,0l-0.41,0.41c-0.058,0.059 -0.091,0.138 -0.091,0.221c0,0.083 0.033,0.162 0.091,0.221l0.41,0.41c0.059,0.059 0.138,0.091 0.221,0.091s0.162,-0.033 0.221,-0.091l0.41,-0.41c0.121,-0.123 0.121,-0.32 -0.001,-0.442z"/>
  <path fill="#ffffff" id="svg_8" d="m22.791,1.943c0.061,0.061 0.141,0.091 0.221,0.091s0.16,-0.031 0.221,-0.091l0.41,-0.41c0.122,-0.122 0.122,-0.319 0,-0.441l-0.41,-0.41c-0.122,-0.122 -0.319,-0.122 -0.441,0l-0.41,0.41c-0.122,0.122 -0.122,0.319 0,0.441l0.409,0.41z"/>
  <path fill="#ffffff" id="svg_9" d="m30.079,9.461c0.061,0.061 0.141,0.091 0.221,0.091s0.16,-0.031 0.221,-0.091l0.41,-0.41c0.122,-0.122 0.122,-0.319 0,-0.441l-0.411,-0.41c-0.122,-0.122 -0.319,-0.122 -0.441,0l-0.41,0.41c-0.122,0.122 -0.122,0.319 0,0.441l0.41,0.41z"/>
  <path fill="#ffffff" id="svg_10" d="m19.55,29.942l-0.567,-0.063l-0.063,-0.567c-0.017,-0.159 -0.151,-0.278 -0.31,-0.278c-0.159,0 -0.293,0.12 -0.31,0.278l-0.063,0.567l-0.567,0.063c-0.159,0.018 -0.278,0.151 -0.278,0.31c0,0.159 0.12,0.293 0.278,0.31l0.567,0.063l0.063,0.567c0.017,0.159 0.151,0.278 0.31,0.278c0.159,0 0.293,-0.119 0.31,-0.278l0.063,-0.567l0.567,-0.063c0.159,-0.017 0.278,-0.151 0.278,-0.31c0,-0.159 -0.12,-0.292 -0.278,-0.31z"/>
  <path fill="#ffffff" id="svg_11" d="m5.606,27.971l-0.651,-0.072l-0.072,-0.651c-0.017,-0.158 -0.151,-0.278 -0.31,-0.278c-0.159,0 -0.293,0.12 -0.31,0.278l-0.072,0.65l-0.651,0.073c-0.158,0.017 -0.278,0.151 -0.278,0.31c0,0.159 0.12,0.293 0.278,0.31l0.65,0.072l0.072,0.65c0.017,0.158 0.151,0.278 0.31,0.278c0.159,0 0.293,-0.119 0.31,-0.278l0.072,-0.651l0.65,-0.072c0.158,-0.017 0.278,-0.151 0.278,-0.31c0.001,-0.157 -0.118,-0.291 -0.276,-0.309z"/>
  <path fill="#ffffff" id="svg_12" d="m25.212,29.059c-0.122,-0.122 -0.32,-0.122 -0.441,0l-0.41,0.41c-0.122,0.122 -0.122,0.319 0,0.441l0.41,0.41c0.061,0.061 0.141,0.091 0.221,0.091c0.08,0 0.16,-0.03 0.221,-0.091l0.41,-0.41c0.059,-0.059 0.091,-0.138 0.091,-0.221c0,-0.083 -0.033,-0.162 -0.091,-0.221l-0.411,-0.409z"/>
  <path fill="#ffffff" id="svg_13" d="m1.575,17.676c-0.117,-0.117 -0.324,-0.117 -0.441,0l-0.41,0.41c-0.122,0.122 -0.122,0.319 0,0.441l0.41,0.41c0.061,0.061 0.141,0.091 0.221,0.091c0.08,0 0.16,-0.031 0.221,-0.091l0.41,-0.41c0.122,-0.122 0.122,-0.319 0,-0.441l-0.411,-0.41z"/>
  <path fill="#ffffff" id="svg_14" d="m9.312,30.937c-0.059,-0.059 -0.138,-0.091 -0.221,-0.091c-0.083,0 -0.162,0.033 -0.221,0.091l-0.41,0.41c-0.059,0.058 -0.091,0.138 -0.091,0.221c0,0.083 0.033,0.162 0.091,0.221l0.41,0.41c0.061,0.061 0.141,0.091 0.221,0.091c0.08,0 0.16,-0.03 0.221,-0.091l0.41,-0.41c0.122,-0.122 0.122,-0.319 0,-0.441l-0.41,-0.411z"/>
  <path fill="#ffffff" id="svg_15" d="m0.468,22.426c-0.122,-0.122 -0.32,-0.122 -0.441,0l-0.41,0.41c-0.122,0.122 -0.122,0.319 0,0.441l0.41,0.41c0.061,0.061 0.141,0.091 0.221,0.091c0.08,0 0.16,-0.031 0.221,-0.091l0.41,-0.41c0.059,-0.058 0.091,-0.138 0.091,-0.221c0,-0.083 -0.033,-0.162 -0.091,-0.221l-0.411,-0.409z"/>
 </g>
</svg>